<?xml version="1.0" encoding="utf-8"?>
<!-- Generator: Adobe Illustrator 26.0.0, SVG Export Plug-In . SVG Version: 6.00 Build 0)  -->
<svg version="1.1" id="图层_1" xmlns="http://www.w3.org/2000/svg" xmlns:xlink="http://www.w3.org/1999/xlink" x="0px" y="0px"
	 viewBox="0 0 128 128" style="enable-background:new 0 0 128 128;" xml:space="preserve">
<path d="M64,0.24c-35.32,0-64,28.68-64,64s28.68,64,64,64s64-28.68,64-64S99.32,0.24,64,0.24z M118.28,59.5h-16.59
	c-0.71-17.54-5.45-32.95-12.8-43.62C105.56,24.38,116.67,40.87,118.28,59.5z M59.26,10.44v49.07H35.79
	C36.74,35.09,46.7,14.71,59.26,10.44L59.26,10.44z M59.26,68.98v49.07C46.7,113.78,36.74,93.4,35.79,68.98H59.26z M68.74,118.05
	V68.98h23.47C91.26,93.4,81.3,113.78,68.74,118.05L68.74,118.05z M68.74,59.5V10.44C81.3,14.7,91.26,35.09,92.21,59.5L68.74,59.5
	L68.74,59.5z M38.87,15.89c-7.35,10.67-12.09,26.07-12.8,43.62H9.48C11.38,40.54,22.76,24.18,38.87,15.89z M9.72,68.98h16.59
	c0.71,17.54,5.45,32.95,12.8,43.62C22.44,104.1,11.33,87.62,9.72,68.98L9.72,68.98z M89.13,112.6c7.35-10.67,12.09-26.07,12.8-43.62
	h16.59C116.62,87.94,105.24,104.3,89.13,112.6L89.13,112.6z"/>
</svg>
